<?xml version="1.0" encoding="UTF-8"?><svg id="a" xmlns="http://www.w3.org/2000/svg" xmlns:xlink="http://www.w3.org/1999/xlink" viewBox="0 0 102.67 117.51"><defs><style>.d{fill:url(#c);}.e{fill:url(#b);}.f{fill:#010101;opacity:.15;}.g{fill:#fff;opacity:.2;}</style><linearGradient id="b" x1="3" y1="58.11" x2="97.85" y2="58.11" gradientTransform="matrix(1, 0, 0, 1, 0, 0)" gradientUnits="userSpaceOnUse"><stop offset="0" stop-color="#d771a9"/><stop offset=".5" stop-color="#c60e7f"/><stop offset="1" stop-color="#a11e81"/></linearGradient><linearGradient id="c" x1="0" y1="58.76" x2="102.67" y2="58.76" gradientTransform="matrix(1, 0, 0, 1, 0, 0)" gradientUnits="userSpaceOnUse"><stop offset="0" stop-color="#edeef4"/><stop offset=".5" stop-color="#cfd2e0"/><stop offset="1" stop-color="#aab0c5"/></linearGradient></defs><polygon class="e" points="3 30.73 3 85.49 50.42 112.87 97.85 85.49 97.85 30.73 50.42 3.35 3 30.73"/><polygon class="g" points="3.36 31.06 3.36 31.06 51.33 58.76 99.31 31.06 99.31 31.06 51.33 3.36 3.36 31.06"/><polygon class="f" points="51.33 114.15 99.31 86.45 99.31 31.06 99.29 31.05 51.33 58.73 51.33 114.15"/><path class="d" d="M100.99,28.15L53.02,.45c-1.04-.6-2.32-.6-3.36,0L1.68,28.15c-1.04,.6-1.68,1.71-1.68,2.91v55.39c0,1.2,.64,2.31,1.68,2.91l47.97,27.7c.52,.3,1.1,.45,1.68,.45s1.16-.15,1.68-.45l47.97-27.7c1.04-.6,1.68-1.71,1.68-2.91V31.06c0-1.2-.64-2.31-1.68-2.91ZM51.33,110.27L6.73,84.51v-26.85l42.93,24.78c.53,.31,1.11,.45,1.68,.45,1.16,0,2.29-.6,2.92-1.68,.93-1.61,.38-3.67-1.23-4.59L6.73,49.89v-16.89L51.33,7.25l44.61,25.75v26.85l-42.93-24.78c-1.61-.93-3.67-.38-4.59,1.23-.93,1.61-.38,3.67,1.23,4.59l46.29,26.73v16.89l-44.61,25.76Z"/></svg>